<?xml version="1.0" standalone="no"?>
<!DOCTYPE svg PUBLIC "-//W3C//DTD SVG 20010904//EN"
 "http://www.w3.org/TR/2001/REC-SVG-20010904/DTD/svg10.dtd">
<svg version="1.0" xmlns="http://www.w3.org/2000/svg"
 width="297.000000pt" height="297.000000pt" viewBox="0 0 297.000000 297.000000"
 preserveAspectRatio="xMidYMid meet">
<metadata>
Created by potrace 1.11, written by Peter Selinger 2001-2013
</metadata>
<g transform="translate(0.000000,297.000000) scale(0.100000,-0.100000)"
fill="#000000" stroke="none">
<path d="M360 2960 c0 -5 -6 -10 -13 -10 -19 0 -44 -30 -52 -63 -7 -26 -20
-29 -20 -4 0 7 -10 13 -23 13 -15 1 -21 -3 -18 -12 3 -7 1 -16 -4 -19 -6 -4
-10 -20 -10 -37 0 -18 -9 -41 -19 -52 -13 -15 -20 -41 -24 -84 l-4 -64 36 6
c85 14 120 15 131 1 9 -11 5 -17 -21 -30 -17 -9 -41 -15 -54 -13 -19 4 -22 0
-22 -36 -1 -53 -4 -65 -25 -88 -10 -10 -19 -33 -19 -50 -3 -57 -4 -63 -11 -74
-12 -18 -1 -406 12 -439 7 -16 14 -81 16 -142 l5 -113 -36 0 c-52 0 -76 -28
-71 -85 3 -25 8 -50 11 -55 4 -6 10 -32 14 -58 5 -36 11 -46 23 -44 13 2 18
-8 23 -45 14 -108 47 -163 90 -147 15 6 17 3 11 -19 -3 -15 -3 -27 2 -27 5 0
8 -21 8 -46 -1 -44 1 -47 43 -70 46 -27 88 -28 83 -4 -2 8 -10 52 -17 97 -7
45 -18 97 -24 115 -6 18 -19 65 -30 103 -10 39 -26 96 -35 127 -15 52 -15 60
-1 88 8 16 19 30 23 30 10 0 39 58 46 93 6 26 9 27 44 21 50 -9 52 -11 52 -44
0 -16 5 -32 11 -36 6 -3 8 -17 5 -30 -4 -14 0 -37 10 -56 13 -24 15 -46 9
-102 -3 -39 -6 -91 -6 -116 0 -24 -3 -47 -7 -50 -21 -15 -43 -168 -22 -155 6
3 10 -4 10 -17 0 -38 11 -68 25 -68 15 0 25 -31 25 -77 0 -17 7 -38 15 -47 9
-9 15 -33 15 -60 0 -34 -4 -46 -15 -46 -8 0 -15 -9 -15 -21 0 -11 4 -17 10
-14 16 10 11 -17 -5 -29 -14 -10 -13 -16 5 -51 11 -21 20 -45 20 -51 0 -7 13
-25 28 -41 20 -20 29 -40 30 -68 2 -22 7 -42 12 -43 6 -2 2 -17 -7 -33 -14
-24 -15 -34 -5 -62 6 -18 16 -75 22 -127 5 -52 13 -105 16 -116 3 -12 1 -25
-5 -28 -6 -4 -13 8 -17 30 -3 19 -15 52 -25 72 -18 36 -18 36 -19 10 0 -34
-17 -37 -23 -5 -4 22 -11 -52 -8 -86 1 -9 -3 -17 -8 -17 -6 0 -11 -21 -11 -50
0 -30 4 -50 11 -50 6 0 9 -9 6 -20 -5 -20 0 -20 439 -20 l444 0 0 73 c0 80 -9
97 -52 97 -42 0 -76 19 -71 40 3 11 -4 24 -17 33 -12 8 -19 20 -16 26 9 13
-26 31 -61 31 -15 0 -41 7 -57 15 -15 8 -37 15 -47 15 -15 0 -19 7 -19 40 0
22 -4 40 -10 40 -5 0 -10 9 -10 20 0 16 7 20 38 20 50 0 82 10 82 25 0 7 15
12 36 13 47 2 98 32 102 60 2 12 7 22 12 22 17 0 19 32 2 49 -19 20 -87 22
-171 6 -39 -7 -44 -6 -38 8 4 10 1 17 -6 17 -7 1 5 10 26 21 34 18 40 18 50 6
20 -25 137 -31 122 -6 -3 4 9 16 27 25 18 9 45 28 60 43 55 55 87 71 143 71
20 0 35 6 39 15 4 11 -2 15 -24 15 -34 0 -105 16 -165 36 -23 8 -53 14 -67 14
-15 0 -30 5 -33 10 -3 6 -21 10 -38 10 -81 0 -105 34 -86 118 l12 51 46 3 c46
3 50 7 40 48 -3 11 10 16 61 21 79 8 122 23 114 42 -8 22 -82 20 -114 -3 -34
-24 -42 -25 -66 -3 -36 33 -56 95 -54 169 0 38 1 76 0 84 0 8 5 42 11 75 7 33
11 76 11 95 -2 80 -2 177 0 210 3 33 5 35 35 32 20 -3 33 -11 36 -23 4 -16 9
-18 32 -9 14 5 28 10 29 10 10 0 56 -52 56 -63 0 -8 9 -22 20 -32 11 -10 20
-23 20 -29 0 -7 9 -18 20 -26 15 -11 17 -17 8 -27 -17 -20 44 -79 91 -88 44
-9 148 -8 163 1 13 8 -114 64 -150 65 l-27 2 25 4 c14 3 30 8 35 13 6 4 31 8
57 8 27 1 56 5 65 10 20 10 118 8 152 -3 30 -9 38 18 13 43 -22 22 -150 72
-182 72 -31 0 -33 19 -3 31 23 10 106 15 139 8 24 -4 44 2 44 14 0 19 -77 67
-106 67 -14 0 -55 6 -92 14 -37 8 -110 18 -162 21 -52 4 -116 9 -142 11 -26 2
-50 -1 -53 -6 -8 -13 -35 -13 -35 1 0 5 5 7 10 4 6 -3 10 2 10 13 0 10 9 27
20 37 23 21 26 37 6 29 -9 -3 -19 8 -29 33 -9 22 -16 30 -16 19 -1 -15 -4 -16
-16 -6 -11 9 -15 10 -15 1 0 -7 -7 -19 -15 -27 -19 -20 -19 -34 0 -34 16 0 21
-25 6 -35 -5 -3 -12 -18 -16 -35 -6 -26 -9 -28 -32 -19 -13 5 -29 7 -34 4 -18
-12 -98 47 -99 73 0 6 -7 12 -15 12 -9 0 -20 12 -25 26 -6 14 -14 23 -19 20
-12 -8 -21 17 -22 62 l-2 37 -8 -35 c-6 -29 -7 -27 -3 15 2 28 6 90 10 140 3
49 10 95 15 101 5 6 20 10 34 8 14 -1 25 1 25 4 0 9 101 117 109 117 14 0 79
36 91 50 7 8 22 15 34 15 12 0 31 6 42 14 10 8 29 12 42 9 12 -3 46 4 75 16
28 11 84 23 122 26 134 9 190 17 225 29 37 13 70 11 70 -5 0 -5 10 -9 22 -9
31 0 107 -39 119 -61 5 -10 15 -19 22 -19 21 0 77 -152 77 -208 0 -18 6 -40
14 -48 14 -13 26 -85 25 -149 0 -16 2 -52 5 -80 3 -27 8 -75 10 -105 12 -137
52 -290 77 -290 4 0 10 -11 13 -25 14 -55 43 -9 32 51 -4 18 -7 85 -8 149 0
63 -4 115 -9 115 -5 0 -9 7 -9 15 0 8 5 15 11 15 7 0 10 18 7 48 -4 58 17 112
44 112 26 0 34 27 14 49 -9 10 -16 25 -16 34 0 22 19 32 26 13 3 -9 12 -16 20
-16 18 0 18 44 0 60 -8 6 -12 18 -9 26 4 10 -8 20 -36 32 -22 9 -41 20 -41 23
0 3 12 12 28 20 15 7 30 15 34 17 3 2 9 -6 13 -17 10 -33 33 -24 45 17 9 35 7
100 -4 172 -3 14 -5 28 -5 33 -1 4 -8 7 -16 7 -25 0 -17 30 11 40 22 9 26 15
21 39 -4 17 0 36 8 47 24 31 19 91 -8 109 -13 8 -30 33 -37 55 l-13 40 -145 0
c-125 0 -143 -2 -132 -15 13 -15 5 -39 -11 -30 -5 4 -9 15 -9 26 0 19 -16 19
-880 19 -580 0 -880 -3 -880 -10z m-43 -425 c14 -5 14 -8 -5 -25 -12 -11 -26
-20 -32 -20 -5 0 -10 -4 -10 -10 0 -5 -4 -10 -10 -10 -15 0 -12 68 3 73 12 4
19 3 54 -8z m2093 -55 c0 -5 -2 -10 -4 -10 -3 0 -8 5 -11 10 -3 6 -1 10 4 10
6 0 11 -4 11 -10z m-1900 -540 c0 -5 -4 -10 -10 -10 -5 0 -10 5 -10 10 0 6 5
10 10 10 6 0 10 -4 10 -10z m34 -64 c-4 -11 -13 -26 -20 -34 -8 -7 -14 -19
-14 -25 0 -7 -7 -21 -15 -31 -13 -17 -14 -12 -8 50 7 76 27 107 51 77 6 -10 9
-26 6 -37z m1786 -93 c-1 -31 -3 -35 -11 -20 -6 9 -7 26 -4 37 10 30 15 24 15
-17z m-1749 -1030 c-9 -16 -10 -14 -11 12 0 21 3 26 11 18 8 -8 8 -16 0 -30z
m694 -13 c15 -7 10 -9 -22 -9 -24 -1 -43 -5 -43 -10 0 -9 -77 2 -88 14 -4 4 2
5 13 1 11 -3 27 -1 35 4 18 12 78 12 105 0z m-163 -24 c12 -28 4 -60 -15 -53
-13 4 -18 77 -5 77 5 0 13 -11 20 -24z m-443 -668 c0 -27 -2 -29 -8 -13 -5 11
-6 26 -4 33 8 21 13 13 12 -20z"/>
<path d="M135 2840 c-3 -5 -2 -10 4 -10 5 0 13 5 16 10 3 6 2 10 -4 10 -5 0
-13 -4 -16 -10z"/>
<path d="M97 2773 c-4 -3 -7 -13 -7 -22 1 -13 3 -13 11 2 11 19 8 33 -4 20z"/>
<path d="M1218 2353 c6 -2 18 -2 25 0 6 3 1 5 -13 5 -14 0 -19 -2 -12 -5z"/>
<path d="M1085 2240 c3 -5 15 -10 25 -10 10 0 22 5 25 10 4 6 -7 10 -25 10
-18 0 -29 -4 -25 -10z"/>
<path d="M2416 1641 c-3 -5 0 -15 7 -23 7 -7 20 -39 30 -72 24 -86 36 -91 38
-14 2 42 -18 108 -33 108 -3 0 -13 3 -21 6 -8 3 -18 1 -21 -5z"/>
<path d="M2327 1364 c6 -15 23 -19 23 -5 0 5 -7 11 -14 14 -10 4 -13 1 -9 -9z"/>
<path d="M1570 1298 c0 -29 30 -108 41 -108 5 0 9 -8 9 -17 0 -10 16 -33 35
-52 19 -18 37 -42 40 -52 4 -10 15 -19 26 -19 11 0 22 -8 25 -17 4 -10 12 -32
20 -50 8 -17 14 -36 14 -42 0 -6 5 -11 11 -11 7 0 9 9 6 21 -3 12 -2 31 3 43
9 24 -16 94 -45 122 -8 9 -15 20 -15 26 0 6 -11 26 -25 44 -14 18 -25 42 -25
54 0 14 -8 24 -21 27 -12 3 -18 11 -15 19 6 17 -24 34 -58 34 -20 0 -26 -5
-26 -22z"/>
<path d="M522 810 c0 -19 2 -27 5 -17 2 9 2 25 0 35 -3 9 -5 1 -5 -18z"/>
<path d="M2125 235 l0 -235 345 0 c226 0 340 4 330 10 -8 5 -43 19 -77 30 -34
12 -67 27 -73 35 -6 8 -26 17 -43 21 -41 8 -150 66 -184 96 -14 13 -40 37 -59
53 -18 17 -67 55 -108 85 -41 30 -75 60 -76 65 0 6 -13 25 -28 43 l-27 33 0
-236z"/>
<path d="M529 318 c-17 -32 -52 -68 -66 -68 -7 0 -13 -3 -13 -8 0 -7 -31 -39
-112 -117 -22 -22 -46 -35 -62 -35 -14 0 -26 -4 -26 -10 0 -5 -8 -10 -18 -10
-10 0 -23 -5 -28 -10 -6 -6 -41 -19 -79 -30 -37 -11 -70 -22 -73 -25 -3 -3 92
-5 211 -5 l217 0 0 33 c0 34 37 224 46 239 8 13 23 68 19 68 -3 0 -10 -10 -16
-22z"/>
<path d="M1943 29 c-10 -26 -10 -30 3 -25 9 3 18 6 20 6 2 0 4 11 4 25 0 34
-13 31 -27 -6z"/>
</g>
</svg>
