<?xml version="1.0" standalone="no"?>
<!DOCTYPE svg PUBLIC "-//W3C//DTD SVG 20010904//EN"
 "http://www.w3.org/TR/2001/REC-SVG-20010904/DTD/svg10.dtd">
<svg version="1.0" xmlns="http://www.w3.org/2000/svg"
 width="178.000000pt" height="178.000000pt" viewBox="0 0 178.000000 178.000000"
 preserveAspectRatio="xMidYMid meet">
<metadata>
Created by potrace 1.11, written by Peter Selinger 2001-2013
</metadata>
<g transform="translate(0.000000,178.000000) scale(0.100000,-0.100000)"
fill="#000000" stroke="none">
<path d="M10 1738 c0 -18 -1 -417 -3 -885 l-2 -853 882 0 882 0 3 272 c2 150
2 549 0 886 l-2 612 -880 0 -880 0 0 -32z m1630 -635 c-3 -291 -7 -529 -8
-530 -1 -2 -24 -3 -52 -3 l-50 0 0 234 c0 175 -3 236 -12 244 -7 5 -31 8 -52
6 -63 -6 -67 3 -64 140 l2 121 -517 3 -517 2 2 -432 3 -433 25 -1 c14 0 99 -1
189 -2 l164 -2 149 -147 c81 -81 144 -151 140 -155 -5 -5 -208 -7 -453 -6
l-444 3 -3 743 -2 742 752 0 753 0 -5 -527z m-300 77 l0 -70 -452 2 -453 3 0
60 0 60 450 5 c248 3 451 6 453 8 1 1 2 -30 2 -68z m-669 -262 l-2 -107 108
-3 108 -3 -3 -50 c-1 -31 -10 -60 -23 -78 -11 -15 -17 -32 -14 -37 4 -6 3 -9
-2 -8 -4 2 -25 -8 -46 -20 -21 -14 -65 -28 -105 -33 -60 -8 -75 -7 -116 10
-25 11 -57 31 -71 45 -13 13 -27 21 -32 17 -4 -3 -5 -2 -1 3 4 5 -2 26 -12 47
-11 21 -20 50 -20 65 0 15 -8 33 -17 40 -15 12 -15 13 -2 8 13 -4 18 3 23 33
4 21 7 49 8 63 0 14 3 19 5 12 3 -8 16 2 35 25 16 21 37 42 46 47 34 20 88 36
111 33 23 -2 24 -3 22 -109z m967 -654 l-3 -119 -127 -3 c-71 -1 -128 1 -128
5 0 16 245 252 253 244 4 -4 6 -61 5 -127z m-1428 -158 c0 -3 -4 -8 -10 -11
-5 -3 -10 -1 -10 4 0 6 5 11 10 11 6 0 10 -2 10 -4z"/>
</g>
</svg>
